<svg width="24" height="25" viewBox="0 0 24 25" fill="none" xmlns="http://www.w3.org/2000/svg">
<path d="M16.2806 10.0436C16.3504 10.1132 16.4057 10.196 16.4434 10.287C16.4812 10.3781 16.5006 10.4757 16.5006 10.5742C16.5006 10.6728 16.4812 10.7704 16.4434 10.8614C16.4057 10.9525 16.3504 11.0352 16.2806 11.1048L11.0306 16.3548C10.961 16.4246 10.8783 16.4799 10.7872 16.5176C10.6962 16.5554 10.5986 16.5748 10.5 16.5748C10.4014 16.5748 10.3038 16.5554 10.2128 16.5176C10.1218 16.4799 10.039 16.4246 9.96938 16.3548L7.71938 14.1048C7.57865 13.9641 7.49959 13.7732 7.49959 13.5742C7.49959 13.3752 7.57865 13.1843 7.71938 13.0436C7.86011 12.9029 8.05098 12.8238 8.25 12.8238C8.44903 12.8238 8.6399 12.9029 8.78063 13.0436L10.5 14.7639L15.2194 10.0436C15.289 9.97386 15.3718 9.91854 15.4628 9.8808C15.5538 9.84306 15.6514 9.82363 15.75 9.82363C15.8486 9.82363 15.9462 9.84306 16.0372 9.8808C16.1283 9.91854 16.211 9.97386 16.2806 10.0436ZM21.75 12.8242C21.75 14.7526 21.1782 16.6376 20.1068 18.241C19.0355 19.8444 17.5127 21.0941 15.7312 21.832C13.9496 22.57 11.9892 22.7631 10.0979 22.3869C8.20656 22.0107 6.46928 21.0821 5.10571 19.7185C3.74215 18.3549 2.81355 16.6177 2.43735 14.7263C2.06114 12.835 2.25422 10.8746 2.99218 9.09305C3.73013 7.31148 4.97982 5.78873 6.58319 4.71739C8.18657 3.64605 10.0716 3.07422 12 3.07422C14.585 3.07695 17.0634 4.10505 18.8913 5.93294C20.7192 7.76083 21.7473 10.2392 21.75 12.8242ZM20.25 12.8242C20.25 11.1925 19.7661 9.59747 18.8596 8.24076C17.9531 6.88406 16.6646 5.82664 15.1571 5.20221C13.6497 4.57779 11.9909 4.41441 10.3905 4.73274C8.79017 5.05107 7.32016 5.8368 6.16637 6.99059C5.01259 8.14437 4.22685 9.61438 3.90853 11.2147C3.5902 12.8151 3.75358 14.4739 4.378 15.9814C5.00242 17.4888 6.05984 18.7773 7.41655 19.6838C8.77326 20.5904 10.3683 21.0742 12 21.0742C14.1873 21.0717 16.2843 20.2017 17.8309 18.6551C19.3775 17.1085 20.2475 15.0115 20.25 12.8242Z" fill="#E6EAF3"/>
</svg>
